<?xml version="1.0" encoding="UTF-8"?>
<svg width="48px" height="48px" viewBox="0 0 48 48" version="1.1" xmlns="http://www.w3.org/2000/svg" xmlns:xlink="http://www.w3.org/1999/xlink">
    <!-- Generator: Sketch 43.1 (39012) - http://www.bohemiancoding.com/sketch -->
    <title>python</title>
    <desc>Created with Sketch.</desc>
    <defs></defs>
    <g id="Page-1" stroke="none" stroke-width="1" fill="none" fill-rule="evenodd">
        <g id="python" fill-rule="nonzero" fill="#E0E0E0">
            <g transform="translate(3.000000, 3.000000)">
                <path d="M20.7327729,0.0647362205 C19.002741,0.0728385827 17.3505179,0.218433071 15.8966653,0.472748031 C11.6140876,1.22048031 10.8365857,2.78522835 10.8365857,5.67124016 L10.8365857,9.48290551 L20.956996,9.48290551 L20.956996,10.7533228 L10.836502,10.7533228 L7.03843028,10.7533228 C4.0971753,10.7533228 1.52178884,12.5002913 0.716426295,15.8235 C-0.212844622,19.6328504 -0.254342629,22.0102323 0.716426295,25.987748 C1.43586454,28.948252 3.15359761,31.0578425 6.09493625,31.0578425 L9.57449402,31.0578425 L9.57449402,26.4883583 C9.57449402,23.1878031 12.4646295,20.275748 15.8965817,20.275748 L26.0051952,20.275748 C28.8190279,20.275748 31.0651912,17.9865 31.0651912,15.1939134 L31.0651912,5.67115748 C31.0651912,2.96133071 28.7515936,0.924992126 26.0051952,0.472665354 C24.2667131,0.186602362 22.4627211,0.0565511811 20.7327729,0.0647362205 Z M15.2598048,3.13015748 C16.3051195,3.13015748 17.1589243,3.98751969 17.1589243,5.04165354 C17.1589243,6.09206693 16.3051195,6.94174016 15.2598048,6.94174016 C14.2104741,6.94174016 13.3606853,6.09206693 13.3606853,5.04165354 C13.3606853,3.98751969 14.2104741,3.13015748 15.2598048,3.13015748 Z" id="path1948_1_"></path>
                <path d="M32.3271992,10.7531575 L32.3271992,15.1939134 C32.3271992,18.637252 29.3735618,21.5345906 26.0052789,21.5345906 L15.8965817,21.5345906 C13.127761,21.5345906 10.836502,23.8765866 10.836502,26.6166732 L10.836502,36.1399252 C10.836502,38.8498346 13.2212151,40.4443465 15.8965817,41.2215118 C19.1002112,42.152374 22.1718167,42.3211181 26.0051952,41.2215118 C28.5528884,40.4929606 31.0651912,39.0255236 31.0651912,36.1399252 L31.0651912,32.3280945 L20.9569124,32.3280945 L20.9569124,31.0578425 L31.0651076,31.0578425 L36.1251036,31.0578425 C39.0665259,31.0578425 40.1627928,29.0306811 41.1853506,25.987748 C42.2419602,22.8546969 42.1971155,19.8419409 41.1853506,15.8235 C40.4585498,12.930378 39.0702072,10.7533228 36.1251036,10.7533228 L32.3271992,10.7533228 L32.3271992,10.7531575 Z M26.6422231,34.8690945 C27.6913028,34.8690945 28.541259,35.7181063 28.541259,36.7686024 C28.541259,37.8226535 27.6913028,38.6804291 26.6422231,38.6804291 C25.596992,38.6804291 24.7433546,37.8226535 24.7433546,36.7686024 C24.7432709,35.7181063 25.5969084,34.8690945 26.6422231,34.8690945 Z" id="path1950_1_"></path>
            </g>
        </g>
    </g>
</svg>