<?xml version="1.0" encoding="UTF-8"?>
<svg width="48px" height="48px" viewBox="0 0 48 48" version="1.1" xmlns="http://www.w3.org/2000/svg" xmlns:xlink="http://www.w3.org/1999/xlink">
    <!-- Generator: Sketch 43.1 (39012) - http://www.bohemiancoding.com/sketch -->
    <title>erlang</title>
    <desc>Created with Sketch.</desc>
    <defs></defs>
    <g id="Page-1" stroke="none" stroke-width="1" fill="none" fill-rule="evenodd">
        <g id="erlang" fill-rule="nonzero" fill="#DCDCDC">
            <g id="erlang-seeklogo.com" transform="translate(4.000000, 4.000000)">
                <g id="Group" transform="translate(0.039604, 0.064554)">
                    <path d="M6.23492079,28.7384755 C3.15,25.0191588 1.3450396,19.8809093 1.34961386,13.7502585 C1.34535148,8.32848264 2.8425891,3.66821808 5.41654455,0.122068911 L5.41238614,0.123843168 L0.00228712872,0.123843168 L0.00228712872,28.7390669 L6.23107426,28.7390669 L6.23492079,28.7384755 L6.23492079,28.7384755 Z" id="Shape"></path>
                    <path d="M34.7275545,28.7408412 C36.0564802,27.1214173 37.2472426,25.2142089 38.3262475,23.033055 L32.3381287,19.6264807 C30.2351139,23.5164811 27.1596534,27.0970508 22.9068415,27.1209441 C16.7173515,27.0970508 14.2855099,21.0752211 14.2989208,13.3243184 L37.4280296,13.3243184 C37.4589059,12.4492546 37.4589059,12.0423583 37.4280296,11.6211496 C37.5789802,7.00985453 36.5048614,3.13381174 34.5509258,0.115326733 L34.5408415,0.123961452 L39.7484258,0.123961452 L39.7484258,28.7391853 L34.7162228,28.7391853 L34.7275545,28.7408412 L34.7275545,28.7408412 Z" id="Shape"></path>
                    <path d="M14.6732822,6.68149862 C14.9293366,3.17225399 17.3610742,0.81225505 20.2122921,0.805158019 C23.0829505,0.81225505 25.1570644,3.17225399 25.2273415,6.68149862 L14.6732822,6.68149862 L14.6732822,6.68149862 Z" id="Shape"></path>
                </g>
                <g id="Group" transform="translate(0.039604, 32.237756)">
                    <polygon id="Shape" points="3.29585644 1.42023393 3.29585644 0.228051221 0.0772425742 0.228051221 0.0772425742 7.2966928 3.29585644 7.2966928 3.29585644 6.10427352 1.27486634 6.10427352 1.27486634 4.23077598 3.22090099 4.23077598 3.22090099 3.03847499 1.27486634 3.03847499 1.27486634 1.42023393"></polygon>
                    <path d="M8.76001485,4.31582204 C9.56238119,4.18026877 10.0029653,3.27563406 10.0324901,2.35704185 C10.0029653,0.854245808 9.14674753,0.232427722 7.93664852,0.227932938 L6.28991585,0.227932938 L6.28991585,7.29657453 L7.4875396,7.29657453 L7.4875396,4.48615076 L8.98456931,7.29657453 L10.481599,7.29657453 L8.76001485,4.31582204 L8.76001485,4.31582204 Z M7.48743565,1.33518785 L7.63713861,1.33518785 C8.29052971,1.36310284 8.7809109,1.53272185 8.7599109,2.44232449 C8.7809109,3.27575235 8.30716336,3.50191102 7.63713861,3.46429677 L7.48743565,3.46429677 L7.48743565,1.33518785 L7.48743565,1.33518785 Z" id="Shape"></path>
                    <polygon id="Shape" points="14.2240693 0.228051221 13.0265495 0.228051221 13.0265495 7.2966928 15.9456535 7.2966928 15.9456535 6.10427352 14.2240693 6.10427352"></polygon>
                    <path d="M22.0834753,5.84878047 L22.6074356,7.29657453 L23.879911,7.29657453 L21.5595148,0.0576042243 L20.5864455,0.0576042243 L18.1163466,7.29657453 L19.3887177,7.29657453 L19.9127823,5.84878047 L22.0834753,5.84878047 L22.0834753,5.84878047 Z M21.7840693,4.74176211 L20.2870397,4.74176211 L20.9607029,2.10166706 L21.7840693,4.74176211 L21.7840693,4.74176211 Z" id="Shape"></path>
                    <polygon id="Shape" points="26.1255594 7.2966928 27.3979307 7.2966928 27.3979307 2.52748884 30.6915 7.46690323 31.5896139 7.46690323 31.5896139 0.228051221 30.3172426 0.228051221 30.3172426 4.99725518 27.0236733 0.0576042243 26.1255594 0.0576042243"></polygon>
                    <path d="M36.8293218,3.54934283 L36.8293218,4.65647946 L38.1766485,4.65647946 C38.1485792,5.54621043 37.5085991,6.30003326 36.7544704,6.27460225 C35.5635,6.30003326 34.9733168,4.99051301 34.9580347,3.80483591 C34.9733168,2.63500884 35.5551832,1.26883063 36.7544704,1.24990521 C37.3838466,1.26871234 37.9159159,1.75864396 38.1766485,2.35704185 L39.2245693,1.76089135 C38.7637128,0.656356964 37.8327475,0.0438833003 36.7544704,0.0576042243 C34.8984653,0.0440015841 33.7098861,1.78703208 33.6855594,3.80483591 C33.7098861,5.7723691 34.865302,7.52486231 36.6796188,7.5520676 C38.6390644,7.52486231 39.5450792,5.74409927 39.5239753,3.71967155 L39.5239753,3.54934283 L36.8293218,3.54934283 L36.8293218,3.54934283 L36.8293218,3.54934283 Z" id="Shape"></path>
                </g>
            </g>
        </g>
    </g>
</svg>